PathFileType	4	(X/Y/Z)	23_coords_data.trc
DataRate	CameraRate	NumFrames	NumMarkers	Units	OrigDataRate	OrigDataStartFrame	OrigNumFrames
30.0	30.0	7	21	m	30.0	54	64
Frame#	Time	THUMB_TIP	THUMB_IP	THUMB_MCP	THUMB_CMC	INDEX_TIP	INDEX_DIP	INDEX_PIP	INDEX_MCP	MIDDLE_TIP	MIDDLE_DIP	MIDDLE_PIP	MIDDLE_MCP	RING_TIP	RING_DIP	RING_PIP	RING_MCP	PINKY_TIP	PINKY_DIP	PINKY_PIP	PINKY_MCP	WRIST
X1	Y1	Z1	X2	Y2	Z2	X3	Y3	Z3	X4	Y4	Z4	X5	Y5	Z5	X6	Y6	Z6	X7	Y7	Z7	X8	Y8	Z8	X9	Y9	Z9	X10	Y10	Z10	X11	Y11	Z11	X12	Y12	Z12	X13	Y13	Z13	X14	Y14	Z14	X15	Y15	Z15	X16	Y16	Z16	X17	Y17	Z17	X18	Y18	Z18	X19	Y19	Z19	X20	Y20	Z20	X21	Y21	Z21
52	1.7666666666666588	0.5318228323779962	-0.01422770887601621	-0.15420135137403135	0.5184448532691146	-0.0189516400459927	-0.13612611557297888	0.4982416373721975	-0.027042754286598414	-0.11387338680170156	0.481060299213502	-0.029078463157829137	-0.07275711862877343	0.5861538821911436	0.02895522011890561	-0.1491169572309527	0.5702485185703727	0.023819101101074103	-0.14214274117997405	0.5474178649867867	0.019633138411325746	-0.1324861990293733	0.510826561966109	0.00953456733303304	-0.11317994358131706	0.599789984828913	0.03911487430559801	-0.12587521326091528	0.5824918650598635	0.036358920390816896	-0.12127306479794503	0.5547379115274871	0.03409084839525833	-0.11267170079299471	0.5158895469274778	0.02079095988610402	-0.09506302524516252	0.5991771164166099	0.04101328922305303	-0.10397704076969194	0.5820173000254985	0.03867000326099923	-0.09897207200621427	0.5584178564726135	0.03572400024804512	-0.09158510312568768	0.5227071888114114	0.022818494939164657	-0.07769564734392165	0.5917909482769641	0.03656633469175452	-0.08370639831553595	0.5767508886345614	0.0313172568145309	-0.07744191211219809	0.5574290520788105	0.02621373165007357	-0.07100508975884712	0.5248698237271181	0.01543054379548936	-0.05984700032404233	0.4622830810018609	-0.023011742144276925	-0.051989820119430985
53	1.7999999999999918	0.5320234899624418	-0.013982753967871187	-0.1540379300255904	0.5186217927124721	-0.018782574852550082	-0.13600029630342053	0.49838456361863154	-0.02692620761335396	-0.11379768825705422	0.4811071677197495	-0.029040670753552322	-0.07272567057369672	0.5862456527746102	0.0293001192318445	-0.14886803701439782	0.5703601612001173	0.024065055040140892	-0.14192215619585052	0.5475204692175057	0.01981949856255183	-0.13231312121126287	0.5109356590186482	0.009618727965293616	-0.11304833374979106	0.599865093280139	0.03941963536545978	-0.12557843705012262	0.5825696874241849	0.03659404455222004	-0.12100842908142478	0.5548096937420814	0.03421968267596931	-0.11245537661752708	0.515949645072687	0.02085918535180542	-0.09491851117174943	0.5992238886385196	0.04123595237951383	-0.10364197216820925	0.5820655101552541	0.03881431891969034	-0.09866947388150504	0.5584489234918455	0.03583066111903066	-0.09135273967160817	0.5227226204886475	0.022884026593845253	-0.07754199160370967	0.5918160225974556	0.036745606042550505	-0.08335802529341696	0.5767697742344728	0.031452665965066684	-0.07714552213159864	0.5574529423450678	0.026268210782711465	-0.0707585471654183	0.5248632291969881	0.015470158233706566	-0.059704312272183535	0.4622830810018609	-0.023011742144276925	-0.051989820119430985
54	1.8333333333333253	0.5320543813961827	-0.01382190619956547	-0.15398571843092995	0.5186493941227946	-0.018670534101445813	-0.13596358970901118	0.49840903705340617	-0.026868329398038848	-0.1137837768608645	0.4811196724817697	-0.02902462997527988	-0.0727189714853409	0.5862605566816449	0.029559284341094227	-0.14877457926746424	0.5704179768606141	0.024220449033945823	-0.14180970294570416	0.5475753957621876	0.019952248439338516	-0.13221758193698002	0.511007908424296	0.009677328257220674	-0.11295931153062644	0.5999052864770225	0.03962622779713654	-0.12542697785349832	0.5826076163305983	0.036769603979895704	-0.12088491798244	0.5548596752605061	0.03430594905167683	-0.11231802118340273	0.5160027767507802	0.020905020417880782	-0.0948050411127016	0.599248080096147	0.0413981680468446	-0.10345253287690526	0.5820942498559669	0.038917949419254305	-0.09849323618781369	0.5584706091275251	0.035900573559084714	-0.09121319356074231	0.522749765923852	0.02291145163773467	-0.07742824138342597	0.5918442656154987	0.036889121379215406	-0.08310749697666753	0.5767987383814889	0.031545700415079536	-0.0769366005546962	0.5575033615953908	0.026272587835254324	-0.07055735785646056	0.5248925997916278	0.015444054789487405	-0.05959539919685186	0.4622830810018609	-0.023011742144276925	-0.051989820119430985
56	1.8666666666666671	0.5320771630290702	-0.013835139551282682	-0.15398144343110876	0.5186667729297345	-0.01867791835698629	-0.13596176166858387	0.49841411329253604	-0.02686275921533876	-0.1137883957142855	0.48109894958744504	-0.029033464615833227	-0.07273522112412545	0.5862222344210208	0.02971448531975507	-0.14879931293328325	0.5704113543000586	0.024306721912397466	-0.1418156058424463	0.5475747407221986	0.02001885408116366	-0.13221804871798143	0.5110396875014904	0.009692916357510017	-0.11292553746912493	0.5999131162764915	0.03973960328648618	-0.12541289975093994	0.5826142021671107	0.036868681515179524	-0.12088461322960498	0.5548845426290646	0.03433402485332637	-0.112279321397797	0.5160414643448437	0.02090219124703374	-0.09475936031397203	0.5992719229077181	0.041456188870645505	-0.10340803414351896	0.5821279197989735	0.03892436365900909	-0.09844083991487451	0.558504361977804	0.035892969673199326	-0.0911663539967732	0.5227911009364032	0.022882817658150034	-0.0773815883355774	0.5918647533617838	0.03693248603017141	-0.08303600205041806	0.5768239589545765	0.03156430483061001	-0.07687506590330573	0.557559919111213	0.026194119734443078	-0.07048210884524508	0.5249326455588372	0.015388369823083003	-0.05954683379650527	0.4622830810018609	-0.023011742144276925	-0.051989820119430985
57	1.9000000000000004	0.5320630679968104	-0.01389070074123111	-0.15401094154870454	0.5186518068647255	-0.018713759725262125	-0.13598661973390141	0.498393413032661	-0.02687245534352023	-0.11380885688113407	0.48106686625153816	-0.02904600617582631	-0.07276063580614789	0.5861526962268843	0.02983256597271411	-0.1488791419303654	0.570375231598746	0.024364373832289954	-0.1418669750310927	0.5475466798794479	0.020067997135953974	-0.13225405629209813	0.5110482114416165	0.009702388933921058	-0.11291363069454285	0.5999005666883632	0.03981142481191002	-0.1254569214467839	0.5826001411842072	0.03693888074539731	-0.12093544293184089	0.554891253278825	0.034347234424145334	-0.11228036058720026	0.5160660267962843	0.0208925330639278	-0.0947383903191037	0.5992847611451314	0.0414734723371426	-0.10343024226449782	0.5821509686255135	0.038903253451585074	-0.09844755937522898	0.5585306035252829	0.03586700925279185	-0.09116473350218335	0.5228282985716525	0.02284319756427089	-0.07736449494990016	0.5918809688416256	0.03694000038523182	-0.08303377681769974	0.5768479914516214	0.03155207659131509	-0.07687099595330371	0.5576164061547547	0.02609640993417217	-0.07045275263480255	0.5249753463812616	0.015322476111265804	-0.0595272312356705	0.4622830810018609	-0.023011742144276925	-0.051989820119430985
58	1.9333333333333338	0.5320429870119299	-0.01397809203445044	-0.15405030619081367	0.5186295932943723	-0.018770019134854765	-0.1360192689593564	0.4983667542761443	-0.026893737166272857	-0.11383272888958917	0.48103314791323426	-0.02905974131342881	-0.07278708945626833	0.5860743954701829	0.029922076568658307	-0.14897940681888638	0.5703300610476045	0.024401511069750637	-0.14193389121232636	0.5475098965145864	0.02010451476115882	-0.1323013553878441	0.5110459821392703	0.00970807953149766	-0.11291235910270664	0.5998790795056421	0.0398578350092782	-0.12552265561296816	0.582577011327498	0.036991025303435454	-0.12100382403065163	0.5548879631134105	0.03435524279033009	-0.11229872153030451	0.5160809551646708	0.020880974025051624	-0.09473147540840221	0.5992909835006777	0.04146724037881766	-0.10348440166922157	0.5821659627996131	0.03887158331228935	-0.09848477864532323	0.5585505981809786	0.03583471370295266	-0.09118601464688925	0.5228600372977406	0.02280123533748457	-0.07736454079144417	0.5918954176389	0.036922186440116134	-0.08306713799804433	0.5768720160009365	0.03151816562124099	-0.07689510735865179	0.5576692817377258	0.025995583893736462	-0.07044777404327685	0.5250158146847617	0.01525668741292241	-0.05952483291941524	0.4622830810018609	-0.023011742144276925	-0.051989820119430985
59	1.9666666666666672	0.5320479029844281	-0.014086823680004357	-0.15407562013774834	0.5186253361986928	-0.018838638716057843	-0.13604079397430519	0.49835404753859824	-0.026922916912650363	-0.11384756748289082	0.48100762701178945	-0.02907215326238255	-0.07280646030947135	0.586009894707692	0.02999159366285975	-0.1490653930899039	0.5702963709483756	0.024426268287182418	-0.14198638719018603	0.5474831343323192	0.02013325253628928	-0.1323356833887831	0.5110454988759561	0.009712316059166337	-0.11291047040954011	0.5998601155667347	0.03989503969157049	-0.1255737579856322	0.5825564252851556	0.03703596514091745	-0.12105623705563179	0.5548828332225706	0.03436771634756319	-0.1123119646027399	0.5160907282504326	0.020872436410809603	-0.09472793968637694	0.5992949792175625	0.04145471528886979	-0.10353574861981407	0.5821754765925036	0.03884633001031468	-0.09852386712588168	0.5585656211421262	0.035808119129011384	-0.09120785870236148	0.5228849912771463	0.022765583459906313	-0.07736929845360585	0.5919106764840618	0.036889682558251646	-0.08310248050155056	0.5768972937963328	0.031471844749926814	-0.07691819608421635	0.557715021657162	0.02590780274156912	-0.07044564704168121	0.5250491764862064	0.015201344505148318	-0.05952787426977679	0.4622830810018609	-0.023011742144276925	-0.051989820119430985
